<svg xmlns="http://www.w3.org/2000/svg" viewBox="0 0 256 256" role="img" aria-labelledby="title desc">
  <title id="title">NextCampus mascot icon</title>
  <desc id="desc">A premium geometric owl mask icon inspired by the campus mascot.</desc>
  <defs>
    <linearGradient id="bg" x1="32" y1="24" x2="224" y2="232" gradientUnits="userSpaceOnUse">
      <stop offset="0" stop-color="#1E5A8F" />
      <stop offset="1" stop-color="#082743" />
    </linearGradient>
    <linearGradient id="face" x1="76" y1="68" x2="180" y2="188" gradientUnits="userSpaceOnUse">
      <stop offset="0" stop-color="#FFFDF6" />
      <stop offset="1" stop-color="#F1EBDD" />
    </linearGradient>
    <linearGradient id="beak" x1="118" y1="122" x2="138" y2="144" gradientUnits="userSpaceOnUse">
      <stop offset="0" stop-color="#F04C4C" />
      <stop offset="1" stop-color="#B91C1C" />
    </linearGradient>
    <filter id="shadow" x="-20%" y="-20%" width="140%" height="140%">
      <feDropShadow dx="0" dy="10" stdDeviation="12" flood-color="#02111f" flood-opacity="0.28" />
    </filter>
  </defs>

  <rect width="256" height="256" rx="64" fill="url(#bg)" />

  <g filter="url(#shadow)">
    <path
      fill="url(#face)"
      d="M72 64
         L102 84
         Q128 72 154 84
         L184 64
         Q204 80 206 104
         L206 138
         Q206 170 183 191
         Q159 212 128 212
         Q97 212 73 191
         Q50 170 50 138
         L50 104
         Q52 80 72 64Z"
    />

    <path
      fill="#0A2340"
      d="M90 92
         Q128 72 166 92
         Q157 111 128 119
         Q99 111 90 92Z"
      opacity="0.14"
    />

    <path
      fill="#0A2340"
      d="M76 118
         C76 98 91 86 112 86
         C126 86 137 92 145 106
         C141 127 130 142 112 151
         C94 142 81 128 76 118Z"
    />

    <path
      fill="#0A2340"
      d="M180 118
         C180 98 165 86 144 86
         C130 86 119 92 111 106
         C115 127 126 142 144 151
         C162 142 175 128 180 118Z"
    />

    <path
      fill="url(#beak)"
      d="M128 122
         L143 136
         L128 152
         L113 136Z"
    />
  </g>
</svg>
